<svg xmlns="http://www.w3.org/2000/svg" width="128.969" height="63.563" viewBox="0 0 128.969 63.563">
  <defs>
    <style>
      .cls-1 {
        fill: #000;
        fill-rule: evenodd;
      }
    </style>
  </defs>
  <path id="LOGO" class="cls-1" d="M449.454,50.93h-0.017a6.88,6.88,0,0,0-2.79.962,8.431,8.431,0,0,1-2.717,1.053h0a0.038,0.038,0,0,1-.03-0.006,9.7,9.7,0,0,1-1.145-.946,2.144,2.144,0,0,0-1.469-.538,0.717,0.717,0,0,0-.72.662v0.02a1.449,1.449,0,0,0,.552,1.039,3.078,3.078,0,0,1,.92.921c-0.033.031-.105,0.087-0.176,0.139-0.092.061-.18,0.115-0.213,0.141-1.494,1.028-3.015,2.03-4.527,3.036a33.606,33.606,0,0,0,1.07-8.517c0-10.142-4.146-20.514-10.981-25.832-4.149-3.208-10.353-4.684-16.809-4.689a42.6,42.6,0,0,0-12.17,1.77c-1.566.482-3.574,0.955-5.234,1.591a8.366,8.366,0,0,0-2.145,1.127,2.3,2.3,0,0,0-1,1.777,2.738,2.738,0,0,0,.726,1.7l0.045,0.061,0.078,0.093,0.053,0.063,0.283-.035a3.93,3.93,0,0,0,2.348-.913,8.113,8.113,0,0,1,1.284-1.143c3.421-2.115,9.826-4.067,16.471-4.063h0.03a32.969,32.969,0,0,1,3.416.176,21.907,21.907,0,0,1,15.965,9.267c3.667,5.133,5.625,12.016,5.625,19.681q0,1.509-.1,3.067a24.334,24.334,0,0,1-1.361,6.448,56.042,56.042,0,0,0-9.332,7.631,1.307,1.307,0,0,0-.547.895,0.5,0.5,0,0,0,.233.425,1.993,1.993,0,0,0,1.075.356h0.018a2.952,2.952,0,0,0,2.083-1.417c0.609-.79,1.141-1.713,1.685-2.272a25.808,25.808,0,0,1,3.767-3.112,34.263,34.263,0,0,1-13.049,14.7,29.268,29.268,0,0,1-14.75,4.035c-13.941-.016-26.472-10.216-26.472-25.638,0-.741.028-1.5,0.09-2.266a28.658,28.658,0,0,1,8.964-18.076c3.938-3.824,9.563-8.516,17.932-9.2,1.008-.084,1.973-0.121,2.885-0.121,6.956,0.01,11.434,2.243,15.02,5.448,5.881,5.516,6.575,7.9,7.2,10.4a22.061,22.061,0,0,1,.742,5.682v0a23.978,23.978,0,0,1-6.742,16.4,21.683,21.683,0,0,1-15.456,7.007h-0.025c-0.331,0-.675-0.01-1.011-0.031A35.163,35.163,0,0,0,419.9,62.7a20.321,20.321,0,0,0,6.362-13.74c0.01-.222.01-0.44,0.01-0.661,0-5.757-2.554-11.494-7.061-14.772a15.2,15.2,0,0,0-9.046-2.761H410.15c-6.472.014-13.044,3.294-16.38,7.3l-0.011,0,0,0.009c-0.175.147-.518,0.532-0.9,0.962a12.318,12.318,0,0,0-.885,1.112c-2.3,3.6-5.665,8.108-5.665,14.57a20.212,20.212,0,0,0,.168,2.5c0.844,6.539,5.419,10.25,10.768,12.64a20.22,20.22,0,0,1-9.668-3.187,12.169,12.169,0,0,1-5.492-10.1c-0.007-.178-0.007-0.355-0.007-0.523,0.007-6.4,3.108-10.6,7.3-13.875,0.718-.561,1.236-1.113,1.943-1.566l0.037-.026,0.024-.019,0.109-.152a2.111,2.111,0,0,0,.55-0.88l0.032-.094-0.075-.065a1.834,1.834,0,0,0-1.2-.49,2.055,2.055,0,0,0-1.218.458c-1.2.972-2.061,1.553-2.589,1.956-4.643,3.516-7.034,9.427-7.037,15.347V56.66a13.882,13.882,0,0,0,4.407,10.5,21.61,21.61,0,0,0,4.981,3.2c2.92,1.306,5.86,1.512,9.244,1.512,1.571,0,3.251-.045,5.086-0.045h0.153c1.461-.01,2.987.551,4.692,0.565h0.14a25.826,25.826,0,0,0,25.412-25.615,26.425,26.425,0,0,0-1.659-9.13,31.9,31.9,0,0,0-9.492-10.918l-1.3-.771-1.348-.7a26.489,26.489,0,0,0-10.59-2.251h-0.018c-8.51.015-15.842,4.2-21.02,8.371a38.335,38.335,0,0,0-5.791,6.421c-2.784,4.367-5.532,8.676-5.79,15.37-0.02.485-.025,0.971-0.025,1.452a28.644,28.644,0,0,0,3.226,13.821,18.522,18.522,0,0,0,4.3,5.072c2.284,1.524,3.717,3.677,5.582,4.75,4.144,2.409,9.713,3.651,15.386,3.655a33.208,33.208,0,0,0,15.041-3.366l-0.006.006,0.014-.006,0.016-.013c5.106-3.026,9.585-8.064,13.565-14.028l0.013-.019,0,0.012a25.438,25.438,0,0,0,2.216-4.722c2.489-1.547,5.083-2.984,7.216-4.371a0.048,0.048,0,0,1,.043-0.016,0.055,0.055,0,0,1,.035.007,10.182,10.182,0,0,1,2.928,2.909,12.746,12.746,0,0,0,2.306,2.483,1.122,1.122,0,0,0,.618.263,0.59,0.59,0,0,0,.342-0.113,2.472,2.472,0,0,0,.734-1.317,1.71,1.71,0,0,0,.06-0.393,0.879,0.879,0,0,0-.5-0.781c-0.5-.263-1.228-0.56-1.384-0.643a5.079,5.079,0,0,1-1.336-1c-0.767-.766-1.426-1.714-2.116-2.446a0.092,0.092,0,0,1-.017-0.049,0.083,0.083,0,0,1,.017-0.051,5.5,5.5,0,0,1,3-1.129,11.281,11.281,0,0,0,1.542-.369,3.375,3.375,0,0,0,.867-0.42,0.458,0.458,0,0,0,.188-0.388,0.8,0.8,0,0,0-.2-0.506A1.705,1.705,0,0,0,449.454,50.93Zm-45.673,18.74c-0.1.006-.2,0.006-0.3,0.006H403.45c-4.09.006-8.675-3.108-10.142-4.41a13.375,13.375,0,0,1-4.755-10.443l0-.014c0-5.2,2.6-10.742,6.523-14.961s9.119-7.1,14.2-7.1h0.213a13.4,13.4,0,0,1,7.2,1.816c3.732,2.477,5.146,4.387,6.254,6.6a16.641,16.641,0,0,1,1.258,6.335v0.006c0,6.128-3.381,11.992-8.191,16.046l-0.118.1C413.03,66.059,407.18,69.582,403.781,69.671ZM506,36.575a1.5,1.5,0,0,0-.36-0.78,1.317,1.317,0,0,0-.712-0.483,0.628,0.628,0,0,0-.372.069,0.9,0.9,0,0,0-.3.479v0.009c-2.047,4.951-5.172,13.275-6,15.52-0.064.144-.18,0.6-0.308,1.046a4.5,4.5,0,0,1-.392,1.11,1.529,1.529,0,0,1-1.129.6c-1.9.113-3.767,1.5-6.519,1.515-0.116,0-.251-0.008-0.379-0.013a0.278,0.278,0,0,1-.276-0.283,0.263,0.263,0,0,1,.077-0.194c1.162-1.237,3.022-2.844,5.223-2.856a4.383,4.383,0,0,1,1.232.177c0.084,0.027.3,0.11,0.527,0.183a1.144,1.144,0,0,0,.231.03h0.006a0.759,0.759,0,0,0,.308-0.068,0.439,0.439,0,0,0,.231-0.328V52.294a3.428,3.428,0,0,0-.18-0.9,3.541,3.541,0,0,0-.186-0.471,1.065,1.065,0,0,0-.892-0.594,5.7,5.7,0,0,0-.718-0.044h-0.007c-2.028.006-3.413,0.987-4.954,1.815a13.118,13.118,0,0,0-2.252,1.362,3.072,3.072,0,0,0-1.366,1.906,1.942,1.942,0,0,0,.815,1.329,3.927,3.927,0,0,0,1.7.833,4.911,4.911,0,0,0,.962.091h0.019c2.368,0.012,4.678-1.571,6.873-1.6h0.058a0.292,0.292,0,0,1,.218.108,0.3,0.3,0,0,1,.064.18,0.108,0.108,0,0,1-.006.045c-0.174,1.1-.36,2.769-0.469,4.4-0.019.2-.045,0.436-0.045,0.67a1.25,1.25,0,0,0,.276.885,2.635,2.635,0,0,0,1.406.5h0.025c0.058,0,.122-0.009.186-0.014a0.475,0.475,0,0,0,.276-0.333,2.951,2.951,0,0,0,.148-0.939V61.524a3.6,3.6,0,0,0-.173-1.094,4.538,4.538,0,0,1-.27-1.7,21.862,21.862,0,0,1,.27-2.73V55.989c0.2-1,.532-2.146.975-3.575V52.4l0.006-.027V52.369c0.238-.467.905-2.4,1.63-4.5s1.521-4.4,2.073-5.705c0.366-.851.751-1.919,1.245-2.882A8.033,8.033,0,0,0,506.01,36.7V36.608ZM483.561,58.951c-0.05-.06-0.02-0.042-0.09-0.055a0.44,0.44,0,0,0-.1.018,5,5,0,0,0-1.313,1.507,0.628,0.628,0,0,1-.456.238h0a0.4,0.4,0,0,1-.279-0.113,0.419,0.419,0,0,1-.125-0.29V60.244a0.789,0.789,0,0,1,.1-0.315c1.958-3.259,3.715-7.635,6.963-9.849a1.692,1.692,0,0,0,.34-0.266,0.127,0.127,0,0,0,.058-0.114,0.244,0.244,0,0,0-.006-0.061,5.863,5.863,0,0,0-.559-1.468,0.32,0.32,0,0,0-.154-0.188,0.574,0.574,0,0,0-.276-0.044c-0.09,0-.211.007-0.353,0.018a102.1,102.1,0,0,1-11.164.832,49.145,49.145,0,0,1-5-.253,0.244,0.244,0,0,1-.116-0.044,4.1,4.1,0,0,1-.789-0.819,1.189,1.189,0,0,0-.742-0.5,0.137,0.137,0,0,0-.053-0.007h-0.012a1.5,1.5,0,0,0-.91.481,5.041,5.041,0,0,1-1.058.856c-1.522.744-3.91,0.977-5.943,1.649-2.349.772-4.146,2.249-5.923,2.739a0.335,0.335,0,0,1-.078.006h-0.01a0.137,0.137,0,0,1-.032-0.139c2.025-7.211,2.611-12.793,6.035-19.143,0.978-1.8,1.961-4.1,3.725-5.363a4.779,4.779,0,0,1,1.146-.613,1.554,1.554,0,0,1,.18-0.059,1.97,1.97,0,0,1,.346-0.037h0.02a1.063,1.063,0,0,1,.737.271,1.161,1.161,0,0,1,.434.807c-0.06.559-.316,1.219-0.323,1.822v0.195a0.57,0.57,0,0,0-.006.1,0.759,0.759,0,0,0,.223.6,0.049,0.049,0,0,1,.013-0.021c0-.007.01-0.033,0.025-0.063a0.149,0.149,0,0,0,.254-0.062,8.611,8.611,0,0,0,.445-3.521,2.785,2.785,0,0,0-1.644-2.167,1.935,1.935,0,0,0-.589-0.1,1.824,1.824,0,0,0-.835.22,10.14,10.14,0,0,0-3.494,3.632c-4.652,7.4-5.981,13.775-8.209,23.6a7.162,7.162,0,0,1-.441,1.67,12.438,12.438,0,0,1-1.374.947,1.552,1.552,0,0,0-.882,1.128,0.438,0.438,0,0,0,0,.083,0.517,0.517,0,0,0-.01.088v0.016a0.417,0.417,0,0,0,.02.13,0.591,0.591,0,0,0,.14.31,0.5,0.5,0,0,0,.286.1,0.211,0.211,0,0,0,.07.008c0.183,0,.4-0.057.617-0.057a0.465,0.465,0,0,1,.328.1,0.47,0.47,0,0,1,.143.323c-0.007.062-.018,0.125-0.032,0.193a0.761,0.761,0,0,0-.028.154c-0.749,4.545-1.158,3.789-1.5,9.206-0.013.209-.02,0.44-0.02,0.672-0.01.131-.01,0.263-0.01,0.4a42.911,42.911,0,0,0,.366,4.91,1.251,1.251,0,0,0,.113.485,0.626,0.626,0,0,0,.248.178,1.926,1.926,0,0,0,.905.305h0a0.907,0.907,0,0,0,.2-0.021,0.146,0.146,0,0,0,.063-0.024,0.537,0.537,0,0,0,.131-0.019,0.3,0.3,0,0,0,.148-0.083,0.407,0.407,0,0,0,.037-0.21,1.947,1.947,0,0,0-.02-0.264c-0.125-1.248-.592-2.564-0.647-4.068-0.008-.371-0.034-1.891-0.012-2.26a29.428,29.428,0,0,1,.509-3.954,45.55,45.55,0,0,1,1.12-6.267,4.236,4.236,0,0,1,1.318-1.873c0.287-.22.592-0.424,0.906-0.619a27.792,27.792,0,0,1,3.286-1.644,25.635,25.635,0,0,1,6.249-2.061,0.076,0.076,0,0,1,.038-0.007,0.3,0.3,0,0,1,.245.126,0.3,0.3,0,0,1,.045.161,0.334,0.334,0,0,1-.038.153,42.533,42.533,0,0,0-3.258,5.813,2.7,2.7,0,0,0-.178.884,1.075,1.075,0,0,0,.245.716,1.854,1.854,0,0,0,1.311.5,3.327,3.327,0,0,0,1.88-.669,16.475,16.475,0,0,0,4.7-5.58,6.725,6.725,0,0,0,.813-2.28,0.28,0.28,0,0,1,.278-0.24h0.045a18.485,18.485,0,0,0,2.105.1h0.008c2.509,0,5.359-.327,8.031-0.327,0.439,0,.875.005,1.306,0.032a1.6,1.6,0,0,1,.664.122,0.489,0.489,0,0,1,.319.436v0.014a0.6,0.6,0,0,1-.136.366c-2.083,3.554-4.248,7.031-6.143,10.756a3.437,3.437,0,0,0-.489,1.507v0.016a0.782,0.782,0,0,0,.378.752,1.393,1.393,0,0,0,.777.227h0.015a3.883,3.883,0,0,0,2.4-1.372c1.04-1.046,2.065-2.4,2.062-3.7V59.337c0-.074-0.007-0.146-0.012-0.218A0.435,0.435,0,0,0,483.561,58.951ZM470.2,50.6a0.755,0.755,0,0,1-.036.24c-0.716,2.475-2.433,3.938-4.077,5.37a0.429,0.429,0,0,1-.256.106H465.82a0.3,0.3,0,0,1-.238-0.12,0.32,0.32,0,0,1-.063-0.2,0.591,0.591,0,0,1,.12-0.306c1.166-1.672,1.926-3.841,3.5-5.317h0l0.1-.09,0.007,0,0.108-.1,0.012,0.008a0.763,0.763,0,0,1,.384-0.116,0.385,0.385,0,0,1,.236.071,0.521,0.521,0,0,1,.218.44V50.6ZM386.939,27.592c0.652,0.218,1,.825,2.141.4,0.932-1.244.123-2.833-1.732-2.521C387.658,26.506,386.408,26.375,386.939,27.592Z" transform="translate(-377.031 -18.375)"/>
</svg>
